# xmcd
#
# Track frame offsets: 
#        150
#        17000
#        38237
#        57070
#        73420
#        94250
#        113195
#        137192
#        156655
#        178562
#        202665
#        222395
#        238112
#
# Disc length: 3343 seconds
#
# Revision: 17
# Processed by: cddbd v1.5.2PL0 Copyright (c) Steve Scherf et al.
# Submitted via: ExactAudioCopyFreeDBPlugin 1.0
#
DISCID=bf0d0d0d
DTITLE=Keith Urban - Be Here
DYEAR=2004
DGENRE=Country
TTITLE0=Days Go By
TTITLE1=Better Life
TTITLE2=Making Memories Of Us
TTITLE3=God's Been Good To Me
TTITLE4=The Hard Way
TTITLE5=You're My Better Half
TTITLE6=I Could Fly
TTITLE7=Tonight I Wanna Cry
TTITLE8=She's Gotta Be
TTITLE9=Nobody Drinks Alone
TTITLE10=Country Comfort
TTITLE11=Live To Love Another Day
TTITLE12=These Are The Days
EXTD=Be Here is the fourth solo album by New Zealand-born Australian c
EXTD=ountry singer Keith Urban.\nThe album produced three #1 singles: 
EXTD="Days Go By", "Making Memories of Us" and "Better Life". Nine of 
EXTD=the album's songs were penned by Urban. It achieved triple-platin
EXTD=um sales, reached #8 on the Canadian album chart, #1 on the Billb
EXTD=oard Hot Country Albums chart and #3 on the Billboard 200.\n YEAR
EXTD=: 2004
EXTT0=
EXTT1=
EXTT2=
EXTT3=
EXTT4=
EXTT5=
EXTT6=
EXTT7=
EXTT8=
EXTT9=
EXTT10=
EXTT11=
EXTT12=
PLAYORDER=
